<?xml version="1.0" encoding="UTF-8"?>
<!DOCTYPE svg  PUBLIC '-//W3C//DTD SVG 1.1//EN'  'http://www.w3.org/Graphics/SVG/1.1/DTD/svg11.dtd'>
<svg class="svg-inline--fa icon" enable-background="new 0 0 512 115" aria-hidden="true" focusable="false" role="presentation" version="1.1" viewBox="0 0 512 115" xml:space="preserve" xmlns="http://www.w3.org/2000/svg">
<path d="m158.8 114.25v-112.02h6.076v17.621c0.717-0.781 1.379-1.611 1.984-2.482 5.074-10.529 15.776-17.175 27.463-17.044 13.854-0.413 25.111 4.716 31.726 17.044 8.542 15.536 9.036 34.248 1.322 50.212-6.164 13.818-21.387 20.688-37.686 18.162-10.305-0.874-19.464-6.921-24.323-16.05v44.55l-6.562 5e-3zm6.076-72.393l1.36 13.153c2.402 14.975 11.255 23.817 25.152 25.484 13.457 2.212 26.604-5.393 31.396-18.162 5.404-12.883 5.005-27.465-1.071-40.045-5.096-11.404-17.129-18.052-29.495-16.298-11.583 0.842-21.359 8.926-24.364 20.144-1.293 5.179-2.288 10.426-2.979 15.719v5e-3zm191.99 15.226c-1.908 16.311-15.599 28.69-32.018 28.956-25.481 1.281-37.438-15.637-39.338-35.165-1.324-10.602 0.399-21.363 4.961-31.025 6.518-13.603 21.09-21.416 36.028-19.318 14.189 1.206 26.019 11.352 29.369 25.195 1.292 6.146 2.25 12.363 2.854 18.617h-66.917c-1.244 17.706 8.269 31.937 21.755 35.364 16.795 4.135 31.149-3.143 36.356-19.111 1.158-4.097 3.271-4.676 6.992-3.513h-0.042zm-65.108-18.408h59.854c-0.375-18.859-12.119-32.569-28.049-32.723-17.982-0.292-31.027 12.866-31.805 32.723zm77.478 18.821h5.867c0.438 8.814 5.772 16.638 13.814 20.27 10.034 4.514 21.579 4.21 31.357-0.826 5.393-2.426 8.696-7.961 8.274-13.856 0.308-5.708-3.204-10.927-8.606-12.785-6.456-2.402-13.32-3.725-19.895-5.834-6.84-1.949-13.533-4.396-20.018-7.32-10.6-5.172-11.255-25.315 0.74-31.692 12.484-7.044 27.685-7.277 40.378-0.622 7.747 4.277 12.028 12.914 10.756 21.68h-5.031c0-0.245-0.456-0.458-0.456-0.705-0.627-16.042-14.107-21.058-28.586-19.648-4.377 0.487-8.521 1.809-12.408 3.762-4.795 2.188-7.676 7.165-7.196 12.408 0.01 5.25 3.323 9.921 8.278 11.668 6.313 2.316 13.025 3.805 19.562 5.623l15.797 4.132c7.354 2.411 12.451 9.109 12.822 16.837 1.263 8.483-3.062 16.818-10.709 20.683-13.818 7.818-36.57 5.749-46.71-4.13-5.184-5.217-8.074-12.299-8.018-19.647l-0.012 2e-3zm139.9-30.983h-5.502c0-0.745-0.294-1.459-0.379-2.026-0.181-8.502-6.285-15.715-14.64-17.291-7.652-2.193-15.808-1.801-23.208 1.118-6.015 1.721-10.173 7.194-10.22 13.445-0.214 6.162 3.935 11.623 9.931 13.071l25.148 6.455c2.716 0.65 5.397 1.467 8.018 2.44 8.022 2.914 13.467 10.362 13.709 18.874 0.242 8.524-4.775 16.329-12.641 19.638-11.801 5.358-25.32 5.497-37.226 0.375-9.921-4.277-16.13-14.279-15.556-25.069h5.379c2.021 9.746 8.715 17.863 17.896 21.703 9.181 3.841 19.666 2.9 28.017-2.506 5.117-2.663 8.217-8.056 7.946-13.818 0.256-5.706-3.313-10.892-8.734-12.698-6.456-2.401-13.32-3.679-19.895-5.834-6.883-1.917-13.614-4.336-20.142-7.236-10.348-5.091-11.174-25.068 0.617-31.441 12.655-7.346 28.226-7.519 41.037-0.456 7.362 4.391 11.436 12.714 10.382 21.221l0.063 0.035zm-360.34 57.504c-4.481 1.695-9.525-0.223-11.749-4.467l-21.387-29.58-3.103-4.13-24.818 33.753c-2.091 4.063-6.874 5.938-11.169 4.386l31.975-42.897-29.75-38.762c4.415-1.595 9.333 0.135 11.787 4.132l22.166 29.941 22.296-29.825c2.11-3.995 6.878-5.772 11.089-4.137l-11.545 15.317-15.636 20.353c-1.704 1.519-1.852 4.132-0.33 5.834 0.102 0.116 0.214 0.226 0.33 0.33l29.782 39.752h0.062zm135.76-82.11v5.832c-16.528-1.083-30.805 11.438-31.89 27.964-0.066 1.007-0.081 2.013-0.045 3.02v40.87 4.633h-5.917v-81.956h5.834v16.795c7.153-12.25 18.194-16.795 32.056-17.125l-0.038-0.033zm-284.55 38.638l2.606-12.866c7.154-25.442 36.319-36.027 56.386-20.27 11.749 9.226 14.677 22.296 14.105 37.026h-66.19c-1.068 26.305 17.913 42.193 42.193 34.085 8.001-2.92 14.022-9.57 16.006-17.83 1.284-4.134 3.401-4.844 7.282-3.647-1.311 10.203-7.228 19.246-16.052 24.534-14.761 8.069-33.041 5.734-45.297-5.791-5.91-6.646-9.479-15.043-10.173-23.915 0-1.457-0.486-2.819-0.828-4.132-0.03-2.452-0.047-4.849-0.047-7.194h9e-3zm6.99-1.777h59.856c-0.375-19.072-12.408-32.598-28.46-32.724-17.867-0.244-30.653 12.988-31.438 32.641l0.042 0.083z"/>
</svg>
