<?xml version="1.0" encoding="UTF-8"?>
<!DOCTYPE svg  PUBLIC '-//W3C//DTD SVG 1.1//EN'  'http://www.w3.org/Graphics/SVG/1.1/DTD/svg11.dtd'>
<svg class="svg-inline--fa icon" enable-background="new 0 0 512 479" aria-hidden="true" focusable="false" role="presentation" version="1.1" viewBox="0 0 512 479" xml:space="preserve" xmlns="http://www.w3.org/2000/svg">
	<path d="m115.12 339.26h33.685c1.98 0 2.972-0.66 3.303-2.645l20.141-57.469h75.637l21.133 58.129c0.662 1.322 1.323 1.983 2.969 1.983h36.992c1.976 0 2.637-1 1.976-2.968-25.099-68.37-51.849-143.01-76.291-210.72-0.661-1.323-0.992-1.654-2.64-1.654h-45.577c-0.992 0-1.983 0.661-1.983 1.984-0.662 11.552-1.649 14.854-2.642 18.157-21.142 57.138-51.194 141.36-69.029 191.89-0.646 2.308 0.016 3.308 2.326 3.308zm94.125-182.32h0.33c6.609 23.113 22.787 67.71 29.392 89.831h-58.129c9.911-30.71 23.451-68.028 28.407-89.831z"/>
	<path d="m356.9 156.94c13.211 0 22.13-7.927 22.13-20.472 0-12.222-8.259-20.479-21.808-20.479-12.871 0-22.451 8.258-22.451 20.479 0 12.545 8.92 20.472 22.129 20.472z"/>
	<path d="m374.4 178.75h-35c-1.66 0-2.322 0.661-2.322 2.641v154.9c0 2.313 1 2.976 2.984 2.976h34.338c1.984 0 2.646-1 2.646-2.645v-155.23c1e-3 -2.31-0.661-2.641-2.646-2.641z"/>
	<path d="M0,0v479h512V0H0z M479,446H33V33h446V446z"/>
</svg>
