<?xml version="1.0" encoding="UTF-8"?>
<!DOCTYPE svg  PUBLIC '-//W3C//DTD SVG 1.1//EN'  'http://www.w3.org/Graphics/SVG/1.1/DTD/svg11.dtd'>
<svg class="svg-inline--fa icon" enable-background="new 0 0 512 479" aria-hidden="true" focusable="false" role="presentation" version="1.1" viewBox="0 0 512 479" xml:space="preserve" xmlns="http://www.w3.org/2000/svg">
	<path d="m151.61 338.34h34.347c2.311 0 2.972-1 2.972-2.977v-210.05c0-1.984-0.662-2.314-2.642-2.314h-34.677c-1.649 0-2.641 0.331-2.641 2.314v210.05c8e-3 1.977 0.669 2.977 2.641 2.977z"/>
	<path d="m295.95 341.64c21.791 0 45.242-5.945 66.049-16.178 1.652-0.984 1.984-1.646 1.652-3.299-0.33-5.283-0.991-14.201-0.991-21.137v-194.86c0-1.319-0.322-1.98-1.646-1.98h-36c-1.314 0-1.977 0.661-1.977 2.311v70.351c-5.62-1.649-11.227-2.311-18.822-2.311-56.146 0-91.492 37.319-91.492 85.203-6e-3 55.162 34.672 81.904 83.227 81.904zm7.598-136.4c7.598 0 14.531 0.992 19.482 2.976v98.421c-5.951 1.982-14.209 3.305-22.467 3.305-25.098 0-46.896-14.879-46.896-52.192 1e-3 -33.679 20.154-52.51 49.881-52.51z"/>
	<path d="M0,0v479h512V0H0z M479,446H33V33h446V446z"/>
</svg>
