<?xml version="1.0" encoding="UTF-8"?>
<!DOCTYPE svg  PUBLIC '-//W3C//DTD SVG 1.1//EN'  'http://www.w3.org/Graphics/SVG/1.1/DTD/svg11.dtd'>
<svg class="svg-inline--fa icon" enable-background="new 0 0 512 116" aria-hidden="true" focusable="false" role="presentation" version="1.1" viewBox="0 0 512 116" xml:space="preserve" xmlns="http://www.w3.org/2000/svg">
		<path d="m218.94 45.153l-3.279 11.607 3.279-11.612v5e-3zm16.858 25.213l-3.611-0.017 3.611 0.017zm-0.89 17.349l-21.635 0.082 21.635-0.082zm4.531-17.318l-3.615-0.022 3.615 0.022zm-2.628 15.852l3.775-14.373-3.775 14.373zm79.672-66.171l-7.018 33.01 7.018-33.01zm-18.05-0.045l-5.325 24.662 5.325-24.662z"/>
		<path d="m315.23 18.554h-15.015c-0.834 0-1.661 0.666-1.84 1.483l-10.66 49.327c-0.174 0.812-1.001 1.479-1.831 1.479h-10.625c-10.521 0-9.304-7.269-7.107-17.231l0.064-0.301 1.274-6.795 0.551-2.799 4.853-23.681c0.165-0.817-0.381-1.487-1.213-1.487h-15.415c-0.871 0.03-1.617 0.635-1.83 1.483l-7.028 32.927c-3.818 17.429-2.805 34.044 17.94 34.564h33.165c0.837 0 1.653-0.664 1.835-1.482l14.043-66.022c0.175-0.817-0.373-1.482-1.2-1.482l0.039 0.017zm59.865 52.464c0.836 0 1.33 0.667 1.209 1.483l-1.457 7.13m-1.419 7.125l1.453-7.134-1.453 7.134zm-1.777 1.505l-27.667 0.131 27.667-0.131z"/>
		<path d="m334.98 61.838c-0.013-0.78 0.872-2.123 1.71-2.123l-1.874-0.03c-0.89 8.5 0.164 2.153 0.164 2.153zm10.327 26.545h-0.29 0.29zm29.792-17.322c0.836 0 1.33 0.668 1.209 1.483l-1.656 8.244m-22.242 7.582h-0.061 0.061zm-3.685 0.013h-0.213 0.213zm-1.118 0h-0.357 0.357zm-1.147 0h-0.312 0.312zm2.052 0h-0.91 0.91z"/>
		<path d="m352.36 88.37l-3.625 0.013 3.625-0.013zm19.262-0.122l-19.21 0.117 19.21-0.117zm1.773-1.487l1.225-5.968-1.225 5.972v-4e-3zm-26.182 1.622h-0.79 0.79zm-2.243 9e-3h-1.066 1.066zm1.129-9e-3h-0.885 0.885zm-219.65-26.367l2.331-10.34-2.663 11.812-0.312 1.483 0.648-2.965-4e-3 0.01zm27.927-43.635h-16.49c-0.876 0.034-1.626 0.635-1.852 1.479l-3.127 13.768c-0.18 0.612 0.17 1.254 0.781 1.436 0.131 0.037 0.265 0.053 0.402 0.044h16.617c0.835 0 1.662-0.666 1.839-1.479l3.021-13.798c0.177-0.813-0.356-1.479-1.199-1.479l8e-3 0.029zm-3.553 22.962l-4.886 22.371 4.886-22.371zm-47.902 74.129l13.599 0.108c-4.016 0-10.645-0.072-13.603-0.108h4e-3z"/>
		<path d="m131.16 41.339l-2.335 10.337 2.335-10.337zm18.476-1.484h-16.578c-0.876 0.032-1.627 0.633-1.852 1.479l-4.665 20.677-0.648 2.969-4.441 21.104c-0.219 0.989-0.485 1.96-0.798 2.923 0 0-3.109 9.234-8.322 9.134l-5.175-0.099c-0.872 0.025-1.626 0.61-1.867 1.447l-3.445 14.49c-0.187 0.607 0.156 1.254 0.766 1.44 0.127 0.039 0.26 0.056 0.394 0.052l13.604 0.108c13.039 0 19.909-7.226 24.319-28.013l9.993-46.186c0.178-0.812-0.364-1.479-1.199-1.479l-0.086-0.046zm236.09 47.687c-0.839 0-1.333-0.669-1.197-1.484l12.513-58.562m6.062 58.562l5.065-24.996-5.065 24.996z"/>
		<path d="m384.71 86.804c-0.104-0.412-0.044-1.409 0.129-2.221l5.933-27.805-6.248 29.279c-0.179 0.82 0.358 1.484 1.197 1.484h1.521c-0.838 1e-3 -2.437-0.329-2.532-0.737zm17.408 0.408c-0.45 0.173-1.509 0.33-2.347 0.33h1.522c0.868-0.035 1.613-0.643 1.818-1.484l0.302-1.482c-0.163 0.814-0.888 2.455-1.33 2.637h0.035zm3.518-13.653l2.232-11.034-2.232 11.034zm49.334-42.14l0.686 2.843c0.189 0.813-0.34 1.475-1.167 1.479"/>
		<path d="m403.41 84.575l2.221-11.017-2.221 11.017zm50.868-56.072l0.687 2.913-0.687-2.913zm-46.406 34.033l0.612-2.949 2.385-11.17-2.701 12.648-0.296 1.467v4e-3zm-10.633-36l-0.521 2.442-5.935 27.8 6.256-29.279 0.199-0.958v-5e-3z"/>
		<path d="m455.66 34.263l-0.686-2.843-1.023-4.441c-1.354-5.239-5.312-8.272-13.922-8.272l-39.615-0.027c-0.867 0.029-1.618 0.636-1.83 1.484l-0.607 2.899-0.893 4.383-12.184 57.081c-0.177 0.82-0.238 1.779-0.135 2.221 0.104 0.447 1.7 0.742 2.533 0.742h12.525c0.833 0 1.883-0.147 2.343-0.33 0.46-0.182 1.127-1.777 1.336-2.64l4.749-23.513 5.086-23.821c0.175-0.812 0.998-1.475 1.831-1.479l39.406-0.02c0.828 0 1.353-0.666 1.163-1.479l-0.077 0.055zm50.725-25.732l-3.031 0.013h-12.615c-0.93 0.057-1.796 0.512-2.369 1.254l-27.891 40.856c-0.473 0.689-1.007 0.588-1.202-0.221l-2.047-9.004c-0.226-0.843-0.979-1.444-1.857-1.478h-17.929c-0.832 0-1.326 0.654-1.098 1.457l7.993 28.147c0.231 0.803 0.244 2.121 0.044 2.932l-3.552 13.623c-0.203 0.581 0.107 1.21 0.686 1.414 0.147 0.047 0.299 0.068 0.456 0.052h17.764c0.833 0 1.69-0.664 1.892-1.462l3.556-13.622c0.278-0.96 0.711-1.865 1.284-2.681l45.285-60.098c0.5-0.668 0.227-1.208-0.606-1.199l-4.754 0.03-9e-3 -0.013zm-142.45 35.254c-0.104 0.889-0.937 1.555-1.772 1.555h-22.74c-0.789 0-1.188-0.534-1.067-1.199l0.018-0.122 0.104-0.386c2.222-5.772 6.594-9.561 14.902-9.561 9.36 0 11.187 4.573 10.548 9.713h7e-3zm-6.662-26.239c-29.174 0-36.092 17.712-39.97 35.587-3.877 18.223-3.539 35.263 26.646 35.263h4.789l3.686-0.013 19.214-0.113c0.867-0.043 1.605-0.65 1.808-1.491l2.919-14.265c0.166-0.815-0.382-1.483-1.213-1.483h-27.143c-10.789 0-14-2.867-12.819-11.303h43.388c0.711-0.013 1.356-0.442 1.613-1.119 0.044-0.119 0.086-0.247 0.104-0.377 6.437-24.292 4.588-40.666-23.004-40.666l-0.018-0.02zm-137.92 26.145l-0.408 1.453c0 4e-3 -3.279 11.616-3.279 11.616l-3.276 11.611c-0.279 0.837-1.044 1.413-1.928 1.457h-17.341c-13.155 0-16.357-10.293-13.155-25.468 3.196-15.522 9.481-25.172 22.427-26.147 17.694-1.334 21.228 11.111 16.965 25.474l-5e-3 4e-3zm11.895 25.248s8.17-19.853 10.036-31.324c2.533-15.352-5.151-37.615-34.84-37.615-29.52 0-42.337 21.254-47.228 44.411-4.885 23.271 1.52 43.686 30.867 43.521l44.793-0.165c0.88-0.039 1.64-0.629 1.896-1.47l3.775-14.382c0.204-0.577-0.103-1.21-0.679-1.418-0.146-0.048-0.3-0.069-0.454-0.057h-7.225c-0.711-4e-3 -1.11-0.464-1.03-1.067 0.013-0.108 0.043-0.221 0.089-0.333v-0.101z"/>
		<path d="m377.36 55.651c0 0.551-0.446 0.995-0.993 0.995-0.555 0-0.997-0.444-0.997-0.995 0-0.552 0.442-0.994 0.997-0.994 0.547 0 0.993 0.443 0.993 0.994z"/>
	<path d="m5.846 29.835c-8.149 11.716-7.137 26.959-0.911 39.404l0.458 0.885 0.293 0.563 0.178 0.321 0.323 0.576 0.596 1.023 0.339 0.56 0.687 1.076 0.292 0.455 1 1.444 0.195 0.269 0.911 1.21 0.342 0.434 0.887 1.037 0.321 0.386 1.171 1.341 0.072 0.078 1.19 1.257 0.382 0.382 0.95 0.89 0.393 0.368 1.301 1.188 0.248 0.208 1.186 0.998 0.444 0.39 0.987 0.772 0.531 0.446 1.11 0.798 0.516 0.365 1.076 0.711 0.466 0.308 1.687 1.032 0.466 0.27 1.266 0.711 0.701 0.355 0.906 0.469 0.208 0.104 0.368 0.174 1.436 0.668 0.302 0.135 1.673 0.689 0.408 0.164 1.577 0.582 0.202 0.073 1.759 0.577 0.425 0.125 1.776 0.517c39.415 7.19 50.865-23.688 50.865-23.688-9.615 12.521-26.647 15.83-42.856 12.152-0.614-0.131-1.208-0.33-1.804-0.504l-0.442-0.134c-0.581-0.178-1.158-0.369-1.733-0.568l-0.241-0.087c-0.514-0.178-1.021-0.373-1.531-0.568l-0.432-0.169c-0.555-0.217-1.108-0.446-1.656-0.685l-0.328-0.148-1.394-0.65-0.445-0.195c-0.364-0.178-0.72-0.364-1.079-0.551l-0.721-0.377c-0.434-0.234-0.865-0.473-1.292-0.725l-0.434-0.242c-0.568-0.339-1.132-0.677-1.689-1.032-0.154-0.096-0.301-0.204-0.451-0.3l-1.199-0.802c-0.135-0.087-0.258-0.174-0.388-0.265l-1.132-0.82-0.5-0.381-1.021-0.799-0.458-0.364-1.275-1.075c-0.043-0.043-0.089-0.074-0.132-0.113-0.454-0.441-0.898-0.807-1.343-1.219l-0.377-0.364-0.963-0.94-0.377-0.378c-0.402-0.412-0.796-0.823-1.182-1.244-0.427-0.469-0.846-0.946-1.258-1.423l-0.31-0.373-0.863-1.066-0.31-0.443-0.995-1.326c-8.937-12.225-12.166-29.117-4.94-42.991m18.934-1.798c-5.894 8.438-5.575 19.838-0.978 28.805 0.77 1.507 1.641 2.962 2.606 4.353 0.889 1.266 1.865 2.771 3.034 3.788l1.323 1.331 0.347 0.343 1.351 1.258 0.065 0.057 1.576 1.306 0.356 0.279 1.652 1.199 1.156 0.768 1.221 0.755 0.178 0.104 1.083 0.604 0.388 0.199 0.754 0.395 0.115 0.053 1.577 0.736 0.347 0.14 1.332 0.524 0.555 0.204 1.186 0.416 0.533 0.174c0.568 0.182 1.128 0.446 1.718 0.499 30.436 5.044 37.461-18.386 37.461-18.386-6.333 9.121-18.6 13.472-31.687 10.082l-1.724-0.499-0.521-0.167-1.197-0.418-0.546-0.204-1.297-0.525-0.355-0.145-1.585-0.737-0.8-0.444-0.458-0.237-1.243-0.709-1.223-0.748-1.153-0.768-1.645-1.203-0.369-0.293c-5.772-4.521-10.272-10.658-12.434-17.71-2.221-7.271-1.775-15.429 2.145-22.052m16.387-0.5c-3.472 5.107-3.818 11.459-1.403 17.112 2.54 5.996 7.755 10.658 13.833 12.879l0.757 0.267 0.331 0.106 1.084 0.31c16.807 3.244 21.317-8.624 22.575-10.37-3.997 5.747-10.659 7.128-18.938 5.131-0.674-0.178-1.34-0.382-1.997-0.613-0.807-0.284-1.596-0.614-2.368-0.98-1.464-0.705-2.852-1.553-4.148-2.533-7.371-5.595-11.99-16.253-7.137-24.936"/>
</svg>
