<?xml version="1.0" encoding="UTF-8"?>
<!DOCTYPE svg  PUBLIC '-//W3C//DTD SVG 1.1//EN'  'http://www.w3.org/Graphics/SVG/1.1/DTD/svg11.dtd'>
<svg class="svg-inline--fa icon" enable-background="new 0 0 512 479" aria-hidden="true" focusable="false" role="presentation" version="1.1" viewBox="0 0 512 479" xml:space="preserve" xmlns="http://www.w3.org/2000/svg">
	<path d="m115.78 339.26h35.004c1.653 0 2.314-0.66 2.314-2.645v-66.387h20.472c48.549 0 91.818-22.783 91.818-75.294-0.338-38.311-22.798-71.674-87.532-71.674-25.097 0-49.871 0.331-62.423 0.662-1.653 0-1.984 0.661-1.984 2.314v210.71c9e-3 1.655 0.67 2.315 2.331 2.315zm37.319-183.97c2.633-0.326 11.883-0.657 24.766-0.657 31.048 0 47.887 14.532 47.887 40.952 0 33.024-25.097 43.262-51.182 43.262-13.883 0-18.831-0.331-21.472-0.661l1e-3 -82.896z"/>
	<path d="m287.21 329.68c13.879 8.58 33.693 12.887 51.193 12.887 36.322 0 61.758-17.838 61.758-50.871 0-23.773-14.523-35.991-48.549-49.861-24.766-9.912-29.063-14.206-29.063-22.133 0-6.278 4.298-13.875 20.476-13.875 17.17 0 34.017 5.947 45.912 12.552 1.645 0.992 2.967 0 2.967-1.98v-27.081c0-1.979-0.33-2.972-1.982-4.294-9.242-5.282-23.452-9.577-43.598-9.577-38.969 0-60.428 21.137-60.428 47.887 0 24.104 11.879 36.992 45.912 50.862 23.772 9.582 29.726 14.533 29.726 23.113 0 7.274-5.29 14.871-20.476 14.871-17.17 0-36.332-6.936-53.509-17.839-0.978-0.661-2.299 0-2.299 1.646v30.388c-0.017 1.65 0.645 2.643 1.96 3.305z"/>
	<path d="M0,0v479h512V0H0z M479,446H33V33h446V446z"/>
</svg>
